<svg width="1920" height="1080" viewBox="0 0 1920 1080" xmlns="http://www.w3.org/2000/svg">
  <defs>
    <!-- Enhanced gradient definitions -->
    <linearGradient id="bgGradient" x1="0%" y1="0%" x2="100%" y2="100%">
      <stop offset="0%" style="stop-color:#0f0f23;stop-opacity:1" />
      <stop offset="25%" style="stop-color:#1a1a2e;stop-opacity:1" />
      <stop offset="50%" style="stop-color:#16213e;stop-opacity:1" />
      <stop offset="75%" style="stop-color:#1a1a2e;stop-opacity:1" />
      <stop offset="100%" style="stop-color:#0f0f23;stop-opacity:1" />
    </linearGradient>
    
    <linearGradient id="accentGradient" x1="0%" y1="0%" x2="100%" y2="100%">
      <stop offset="0%" style="stop-color:#00d4ff;stop-opacity:0.4" />
      <stop offset="50%" style="stop-color:#0099cc;stop-opacity:0.2" />
      <stop offset="100%" style="stop-color:#0066cc;stop-opacity:0.1" />
    </linearGradient>
    
    <radialGradient id="spotlight" cx="50%" cy="25%" r="60%">
      <stop offset="0%" style="stop-color:#ffffff;stop-opacity:0.15" />
      <stop offset="50%" style="stop-color:#ffffff;stop-opacity:0.05" />
      <stop offset="100%" style="stop-color:#ffffff;stop-opacity:0" />
    </radialGradient>
    
    <linearGradient id="electricGradient" x1="0%" y1="0%" x2="100%" y2="100%">
      <stop offset="0%" style="stop-color:#00d4ff;stop-opacity:1" />
      <stop offset="100%" style="stop-color:#0099cc;stop-opacity:1" />
    </linearGradient>
    
    <!-- Enhanced grid pattern -->
    <pattern id="gridPattern" x="0" y="0" width="60" height="60" patternUnits="userSpaceOnUse">
      <path d="M 60 0 L 0 0 0 60" fill="none" stroke="#00d4ff" stroke-width="0.3" opacity="0.08"/>
    </pattern>
    
    <!-- Glow effect for electrical elements -->
    <filter id="glow">
      <feGaussianBlur stdDeviation="3" result="coloredBlur"/>
      <feMerge> 
        <feMergeNode in="coloredBlur"/>
        <feMergeNode in="SourceGraphic"/>
      </feMerge>
    </filter>
  </defs>
  
  <!-- Background -->
  <rect width="1920" height="1080" fill="url(#bgGradient)"/>
  
  <!-- Grid pattern overlay -->
  <rect width="1920" height="1080" fill="url(#gridPattern)"/>
  
  <!-- Accent gradient overlay -->
  <rect width="1920" height="1080" fill="url(#accentGradient)"/>
  
  <!-- Enhanced spotlight effect -->
  <ellipse cx="960" cy="270" rx="900" ry="450" fill="url(#spotlight)"/>
  
  <!-- Electrical circuit elements -->
  <g opacity="0.15" filter="url(#glow)">
    <!-- Main power lines -->
    <path d="M 200 200 L 400 200 L 400 400 L 600 400 L 600 600" stroke="url(#electricGradient)" stroke-width="3" fill="none"/>
    <path d="M 1200 300 L 1400 300 L 1400 500 L 1600 500 L 1600 700" stroke="url(#electricGradient)" stroke-width="3" fill="none"/>
    <path d="M 800 150 L 1000 150 L 1000 350 L 1200 350 L 1200 550" stroke="url(#electricGradient)" stroke-width="3" fill="none"/>
    
    <!-- Cross connections -->
    <path d="M 400 200 L 400 300 L 600 300" stroke="url(#electricGradient)" stroke-width="2" fill="none"/>
    <path d="M 1400 300 L 1400 400 L 1200 400" stroke="url(#electricGradient)" stroke-width="2" fill="none"/>
    
    <!-- Connection nodes with glow -->
    <circle cx="400" cy="200" r="6" fill="url(#electricGradient)"/>
    <circle cx="400" cy="400" r="6" fill="url(#electricGradient)"/>
    <circle cx="600" cy="400" r="6" fill="url(#electricGradient)"/>
    <circle cx="600" cy="600" r="6" fill="url(#electricGradient)"/>
    <circle cx="1400" cy="300" r="6" fill="url(#electricGradient)"/>
    <circle cx="1400" cy="500" r="6" fill="url(#electricGradient)"/>
    <circle cx="1600" cy="500" r="6" fill="url(#electricGradient)"/>
    <circle cx="1600" cy="700" r="6" fill="url(#electricGradient)"/>
    <circle cx="1000" cy="150" r="6" fill="url(#electricGradient)"/>
    <circle cx="1000" cy="350" r="6" fill="url(#electricGradient)"/>
    <circle cx="1200" cy="350" r="6" fill="url(#electricGradient)"/>
    <circle cx="1200" cy="550" r="6" fill="url(#electricGradient)"/>
  </g>
  
  <!-- Lightning bolt elements -->
  <g opacity="0.1">
    <path d="M 300 800 L 350 750 L 320 720 L 370 680 L 340 650 L 390 610" stroke="url(#electricGradient)" stroke-width="4" fill="none"/>
    <path d="M 1500 200 L 1550 250 L 1520 280 L 1570 320 L 1540 350 L 1590 390" stroke="url(#electricGradient)" stroke-width="4" fill="none"/>
  </g>
  
  <!-- Digital/tech elements -->
  <g opacity="0.08">
    <!-- Data flow lines -->
    <path d="M 100 400 Q 200 350 300 400 T 500 400" stroke="#00d4ff" stroke-width="1" fill="none"/>
    <path d="M 1400 800 Q 1500 750 1600 800 T 1800 800" stroke="#00d4ff" stroke-width="1" fill="none"/>
    
    <!-- Binary-like dots -->
    <circle cx="200" cy="350" r="2" fill="#00d4ff"/>
    <circle cx="400" cy="400" r="2" fill="#00d4ff"/>
    <circle cx="600" cy="450" r="2" fill="#00d4ff"/>
    <circle cx="1500" cy="750" r="2" fill="#00d4ff"/>
    <circle cx="1700" cy="800" r="2" fill="#00d4ff"/>
  </g>
  
  <!-- Professional geometric accents -->
  <g opacity="0.06">
    <!-- Hexagon pattern -->
    <polygon points="150,150 200,130 250,150 250,200 200,220 150,200" fill="url(#electricGradient)" transform="rotate(15 200 175)"/>
    <polygon points="1650,850 1700,830 1750,850 1750,900 1700,920 1650,900" fill="url(#electricGradient)" transform="rotate(-15 1700 875)"/>
    
    <!-- Modern rectangles -->
    <rect x="100" y="900" width="120" height="80" fill="url(#electricGradient)" transform="rotate(45 160 940)"/>
    <rect x="1700" y="100" width="100" height="60" fill="url(#electricGradient)" transform="rotate(-30 1750 130)"/>
  </g>
  
  <!-- Subtle particle effects -->
  <g opacity="0.05">
    <circle cx="400" cy="300" r="1" fill="#ffffff"/>
    <circle cx="800" cy="500" r="1" fill="#ffffff"/>
    <circle cx="1200" cy="200" r="1" fill="#ffffff"/>
    <circle cx="1600" cy="600" r="1" fill="#ffffff"/>
    <circle cx="600" cy="800" r="1" fill="#ffffff"/>
    <circle cx="1000" cy="100" r="1" fill="#ffffff"/>
    <circle cx="1400" cy="700" r="1" fill="#ffffff"/>
    <circle cx="1800" cy="400" r="1" fill="#ffffff"/>
  </g>
  
  <!-- Professional overlay for text readability -->
  <rect width="1920" height="1080" fill="url(#bgGradient)" opacity="0.2"/>
</svg> 