<svg width="64" height="64" viewBox="0 0 64 64" fill="none" xmlns="http://www.w3.org/2000/svg">
  <rect width="64" height="64" rx="16" fill="#F3F4F6"/>
  <g>
    <ellipse cx="32" cy="44" rx="18" ry="8" fill="#E5E7EB"/>
    <path d="M24 38C24 32 40 32 40 38" stroke="#1E3A8A" stroke-width="3" stroke-linecap="round"/>
    <path d="M32 38C32 26 18 24 18 18C18 11 32 10 32 18C32 10 46 11 46 18C46 24 32 26 32 38Z" fill="#FBBF24" stroke="#1E3A8A" stroke-width="3"/>
    <ellipse cx="28" cy="20" rx="2" ry="3" fill="#1E3A8A"/>
    <ellipse cx="36" cy="20" rx="2" ry="3" fill="#1E3A8A"/>
    <path d="M32 26C33 28 35 28 36 26" stroke="#1E3A8A" stroke-width="2" stroke-linecap="round"/>
    <text x="32" y="58" text-anchor="middle" fill="#1E3A8A" font-size="10">LOGO</text>
  </g>
</svg>
