<svg width="100%" height="64" viewBox="0 0 1920 64" xmlns="http://www.w3.org/2000/svg" preserveAspectRatio="none">
  <defs>
    <linearGradient id="gumleafGradient" x1="0%" y1="0%" x2="100%" y2="100%">
      <stop offset="0%" style="stop-color:#000000;stop-opacity:1" />
      <stop offset="100%" style="stop-color:#000000;stop-opacity:0" />
    </linearGradient>
  </defs>
  
  <!-- Gumleaf pattern -->
  <g fill="url(#gumleafGradient)" opacity="0.8">
    <!-- Main gumleaf shapes -->
    <path d="M 0 64 Q 200 40 400 64 Q 600 20 800 64 Q 1000 30 1200 64 Q 1400 25 1600 64 Q 1800 35 1920 64 L 1920 64 L 0 64 Z"/>
    
    <!-- Overlapping leaves -->
    <path d="M 100 64 Q 300 45 500 64 Q 700 15 900 64 Q 1100 35 1300 64 Q 1500 20 1700 64 L 1700 64 L 100 64 Z" opacity="0.6"/>
    
    <!-- Smaller accent leaves -->
    <path d="M 50 64 Q 250 50 450 64 Q 650 25 850 64 Q 1050 40 1250 64 Q 1450 30 1650 64 L 1650 64 L 50 64 Z" opacity="0.4"/>
  </g>
</svg> 